# xmcd CD database file
#
# Track frame offsets:
#	182
#	19247
#	31510
#	43057
#	60210
#	74442
#	87747
#	105915
#	120405
#	134025
#	150122
#	166222
#
# Disc length: 2378 seconds
#
# Revision: 4
# Processed by: cddbd v1.5.1PL0 Copyright (c) Steve Scherf et al.
# Submitted via: CDex 1.51
#
DISCID=8d09480c
DTITLE=Junior Brown - Mixed Bag
DYEAR=2001
DGENRE=Country
TTITLE0=Guitar Man
TTITLE1=Ain't Gonna Work Today
TTITLE2=Riverboat Shuffle
TTITLE3=Our First Bluebonnet Spring
TTITLE4=Cagey Bea
TTITLE5=Runnin' With The Wind
TTITLE6=Catfish And Collard Greens
TTITLE7=Little Town Square
TTITLE8=Hard Livin' Hard
TTITLE9=Kansas City Blues
TTITLE10=Grow Up America
TTITLE11=The Chase
EXTD=YEAR: 2001
EXTT0=
EXTT1=
EXTT2=
EXTT3=
EXTT4=
EXTT5=
EXTT6=
EXTT7=
EXTT8=
EXTT9=
EXTT10=
EXTT11=
PLAYORDER=
